<svg width="436" height="273" viewBox="0 0 436 273" fill="none" xmlns="http://www.w3.org/2000/svg">
<path d="M1.25861 272.135L5.96245 238.152H6.63442L20.554 265.991L34.2815 238.152H34.7615L39.6573 272.135H36.3934L32.9375 247.752L20.9379 272.135H20.074L7.88238 247.56L4.61849 272.135H1.25861ZM81.7999 238.152L97.7353 272.135H94.0875L88.7116 260.999H74.0241L68.7443 272.135H64.9045L81.0319 238.152H81.7999ZM81.4159 245.256L75.5601 257.639H87.2717L81.4159 245.256ZM124.614 238.152H127.974V268.775H141.126V272.135H124.614V238.152ZM168.101 272.135V238.152H175.205C180.293 238.152 183.94 238.536 186.244 239.304C189.604 240.456 192.196 242.472 194.02 245.352C195.844 248.232 196.804 251.591 196.804 255.527C196.804 258.983 196.036 261.959 194.596 264.551C193.156 267.143 191.236 269.063 188.836 270.311C186.532 271.559 183.172 272.135 178.949 272.135H168.101ZM171.365 268.871H175.301C180.005 268.871 183.268 268.583 185.092 268.007C187.588 267.239 189.604 265.703 191.14 263.591C192.58 261.383 193.252 258.695 193.252 255.623C193.252 252.359 192.484 249.48 190.948 247.176C189.316 244.872 187.108 243.24 184.324 242.376C182.212 241.8 178.661 241.416 173.765 241.416H171.365V268.871ZM224.547 238.152H228.003V272.135H224.547V238.152ZM254.882 238.152H258.53L269.858 264.455L281.281 238.152H285.025L270.242 272.135H269.474L254.882 238.152ZM312.384 238.152H331.871V241.416H315.744V252.071H331.679V255.431H315.744V268.775H331.679V272.135H312.384V238.152ZM355.871 265.799L358.751 264.071C360.766 267.815 363.166 269.639 365.854 269.639C367.006 269.639 368.062 269.447 369.022 268.871C370.078 268.391 370.846 267.623 371.326 266.759C371.902 265.799 372.094 264.935 372.094 263.879C372.094 262.727 371.71 261.671 370.942 260.519C369.886 259.079 367.966 257.255 365.086 255.047C362.302 252.935 360.478 251.399 359.806 250.44C358.559 248.808 357.983 247.08 357.983 245.256C357.983 243.72 358.367 242.376 359.039 241.224C359.806 239.976 360.766 239.016 362.11 238.344C363.358 237.576 364.798 237.288 366.238 237.288C367.87 237.288 369.406 237.672 370.846 238.44C372.19 239.208 373.726 240.744 375.262 242.856L372.478 244.968C371.134 243.24 370.078 242.088 369.214 241.608C368.254 241.032 367.294 240.744 366.238 240.744C364.798 240.744 363.742 241.224 362.782 241.992C361.918 242.856 361.534 243.912 361.534 245.064C361.534 245.832 361.63 246.504 362.014 247.272C362.302 247.944 362.878 248.712 363.646 249.48C364.126 249.96 365.566 251.111 368.062 252.935C371.038 255.047 373.054 257.063 374.206 258.695C375.262 260.423 375.838 262.151 375.838 263.783C375.838 266.279 374.878 268.487 372.958 270.215C371.134 272.039 368.83 272.999 366.142 272.999C364.126 272.999 362.206 272.423 360.478 271.367C358.847 270.215 357.311 268.391 355.871 265.799Z" fill="#967F5D"/>
<path d="M0.874603 137.451H9.61031V215.401H42.9212V223.848H0.874603V137.451ZM97.6393 135.339C110.695 135.339 121.639 139.659 130.47 148.395C139.206 157.131 143.622 167.882 143.622 180.554C143.622 193.225 139.302 203.977 130.47 212.809C121.735 221.545 110.983 225.96 98.3113 225.96C85.5437 225.96 74.7921 221.545 65.9604 212.809C57.1287 204.073 52.7128 193.417 52.7128 181.034C52.7128 172.682 54.7288 165.002 58.7606 157.899C62.7925 150.891 68.2643 145.323 75.1761 141.291C82.0879 137.259 89.5756 135.339 97.6393 135.339ZM98.0233 143.691C91.6875 143.691 85.5437 145.419 79.8799 148.683C74.1201 152.043 69.7043 156.459 66.4404 162.123C63.2725 167.786 61.6405 174.026 61.6405 181.034C61.6405 191.21 65.1924 199.945 72.2962 206.953C79.3999 214.057 88.0397 217.513 98.0233 217.513C104.743 217.513 110.887 215.977 116.647 212.713C122.31 209.449 126.822 205.033 129.99 199.369C133.158 193.705 134.79 187.466 134.79 180.554C134.79 173.738 133.158 167.498 129.99 162.027C126.822 156.459 122.31 152.043 116.455 148.683C110.695 145.419 104.551 143.691 98.0233 143.691ZM154.469 137.451H163.877L192.58 204.265L221.667 137.451H231.075L193.444 223.848H191.524L154.469 137.451ZM245.57 137.451H295.009V145.899H254.21V172.97H294.625V181.322H254.21V215.401H294.625V223.848H245.57V137.451ZM309.888 137.451H318.624V215.401H351.935V223.848H309.888V137.451Z" fill="#967F5D"/>
<path d="M339.359 137.451H349.247L371.518 173.546L393.501 137.451H403.293L375.934 182.474V223.848H367.198V182.474L339.359 137.451Z" fill="#967F5D"/>
<path d="M424.604 120.076C426.524 120.076 428.348 120.556 430.172 121.516C431.996 122.476 433.34 123.916 434.396 125.644C435.356 127.468 435.836 129.388 435.836 131.308C435.836 133.227 435.356 135.147 434.396 136.971C433.436 138.699 431.996 140.139 430.268 141.099C428.444 142.059 426.524 142.539 424.604 142.539C422.684 142.539 420.764 142.059 419.036 141.099C417.213 140.139 415.869 138.699 414.813 136.971C413.853 135.147 413.373 133.227 413.373 131.308C413.373 129.388 413.853 127.468 414.909 125.644C415.869 123.916 417.309 122.476 419.132 121.516C420.86 120.556 422.78 120.076 424.604 120.076ZM424.604 121.9C423.068 121.9 421.532 122.38 419.996 123.148C418.556 123.916 417.309 125.164 416.541 126.604C415.677 128.14 415.197 129.676 415.197 131.308C415.197 132.939 415.677 134.475 416.445 136.011C417.309 137.451 418.46 138.603 419.996 139.467C421.436 140.331 422.972 140.715 424.604 140.715C426.236 140.715 427.772 140.331 429.308 139.467C430.748 138.603 431.9 137.451 432.764 136.011C433.628 134.475 434.012 132.939 434.012 131.308C434.012 129.676 433.628 128.14 432.764 126.604C431.9 125.164 430.748 123.916 429.212 123.148C427.772 122.38 426.236 121.9 424.604 121.9ZM419.708 137.547V125.452H423.836C425.276 125.452 426.332 125.548 426.908 125.74C427.58 126.028 428.06 126.412 428.444 126.988C428.828 127.468 429.02 128.14 429.02 128.716C429.02 129.58 428.732 130.348 428.06 131.02C427.484 131.692 426.62 132.076 425.564 132.172C425.948 132.268 426.332 132.556 426.62 132.747C427.1 133.227 427.676 134.091 428.348 135.147L429.884 137.547H427.484L426.428 135.627C425.564 134.091 424.892 133.227 424.316 132.843C424.028 132.556 423.452 132.364 422.78 132.364H421.628V137.547H419.708ZM421.628 130.732H424.028C425.18 130.732 425.948 130.54 426.332 130.252C426.716 129.868 426.908 129.484 426.908 128.908C426.908 128.524 426.812 128.236 426.62 127.948C426.428 127.66 426.14 127.468 425.852 127.276C425.468 127.18 424.796 127.084 423.836 127.084H421.628V130.732Z" fill="#967F5D"/>
<path d="M201.508 13.6155C205.924 4.87984 210.34 0.463989 219.075 0.463989C228.771 0.463989 236.547 8.33572 236.547 18.0314C236.547 35.5028 219.075 53.0702 201.508 70.5416C184.036 53.0702 166.469 35.5028 166.469 18.0314C166.469 8.33572 174.341 0.463989 184.036 0.463989C192.772 0.463989 197.188 4.87984 201.508 13.6155Z" fill="#967F5D"/>
<path d="M144.87 71.6936C136.422 66.7017 132.39 61.9979 132.966 53.2622C133.638 43.6625 141.99 36.3668 151.686 37.0387C169.157 38.2867 185.38 56.9101 201.7 75.6294C182.98 91.8529 164.261 108.172 146.79 106.924C137.19 106.252 129.894 97.9007 130.566 88.205C131.142 79.4693 135.846 75.4374 144.87 71.6936Z" fill="#967F5D"/>
<path d="M258.53 71.6936C266.882 66.7017 271.009 61.9979 270.337 53.2622C269.666 43.6625 261.314 36.3668 251.714 37.0387C234.243 38.2867 217.923 56.9101 201.7 75.6294C220.419 91.8529 239.043 108.172 256.514 106.924C266.21 106.252 273.505 97.9007 272.833 88.205C272.161 79.4693 267.554 75.4374 258.53 71.6936Z" fill="#967F5D"/>
</svg>
