<svg width="435" height="273" viewBox="0 0 435 273" fill="none" xmlns="http://www.w3.org/2000/svg">
<path d="M0.383972 271.671L5.08781 237.688H5.75979L19.6793 265.527L33.4069 237.688H33.8868L38.7827 271.671H35.5188L32.0629 247.288L20.0633 271.671H19.1993L7.00775 247.096L3.74386 271.671H0.383972ZM80.9252 237.688L96.8607 271.671H93.2128L87.837 260.535H73.1495L67.8697 271.671H64.0298L80.1573 237.688H80.9252ZM80.5413 244.792L74.6855 257.175H86.3971L80.5413 244.792ZM123.74 237.688H127.1V268.311H140.251V271.671H123.74V237.688ZM167.226 271.671V237.688H174.33C179.418 237.688 183.066 238.072 185.37 238.84C188.73 239.992 191.322 242.008 193.145 244.888C194.969 247.768 195.929 251.127 195.929 255.063C195.929 258.519 195.161 261.495 193.721 264.087C192.281 266.679 190.362 268.599 187.962 269.847C185.658 271.095 182.298 271.671 178.074 271.671H167.226ZM170.49 268.407H174.426C179.13 268.407 182.394 268.119 184.218 267.543C186.714 266.775 188.73 265.239 190.266 263.127C191.705 260.919 192.377 258.231 192.377 255.159C192.377 251.895 191.61 249.016 190.074 246.712C188.442 244.408 186.234 242.776 183.45 241.912C181.338 241.336 177.786 240.952 172.89 240.952H170.49V268.407ZM223.672 237.688H227.128V271.671H223.672V237.688ZM254.007 237.688H257.655L268.983 263.991L280.406 237.688H284.15L269.367 271.671H268.599L254.007 237.688ZM311.509 237.688H330.997V240.952H314.869V251.607H330.805V254.967H314.869V268.311H330.805V271.671H311.509V237.688ZM354.996 265.335L357.876 263.607C359.892 267.351 362.292 269.175 364.98 269.175C366.132 269.175 367.188 268.983 368.148 268.407C369.203 267.927 369.971 267.159 370.451 266.295C371.027 265.335 371.219 264.471 371.219 263.415C371.219 262.263 370.835 261.207 370.067 260.055C369.012 258.615 367.092 256.791 364.212 254.583C361.428 252.471 359.604 250.935 358.932 249.976C357.684 248.344 357.108 246.616 357.108 244.792C357.108 243.256 357.492 241.912 358.164 240.76C358.932 239.512 359.892 238.552 361.236 237.88C362.484 237.112 363.924 236.824 365.364 236.824C366.996 236.824 368.532 237.208 369.971 237.976C371.315 238.744 372.851 240.28 374.387 242.392L371.603 244.504C370.259 242.776 369.203 241.624 368.34 241.144C367.38 240.568 366.42 240.28 365.364 240.28C363.924 240.28 362.868 240.76 361.908 241.528C361.044 242.392 360.66 243.448 360.66 244.6C360.66 245.368 360.756 246.04 361.14 246.808C361.428 247.48 362.004 248.248 362.772 249.016C363.252 249.496 364.692 250.648 367.188 252.471C370.163 254.583 372.179 256.599 373.331 258.231C374.387 259.959 374.963 261.687 374.963 263.319C374.963 265.815 374.003 268.023 372.083 269.751C370.259 271.575 367.956 272.535 365.268 272.535C363.252 272.535 361.332 271.959 359.604 270.903C357.972 269.751 356.436 267.927 354.996 265.335Z" fill="white"/>
<path d="M0 136.987H8.7357V214.937H42.0466V223.384H0V136.987ZM96.7647 134.875C109.82 134.875 120.764 139.195 129.596 147.931C138.331 156.667 142.747 167.418 142.747 180.09C142.747 192.761 138.427 203.513 129.596 212.345C120.86 221.081 110.108 225.496 97.4367 225.496C84.6691 225.496 73.9175 221.081 65.0858 212.345C56.2541 203.609 51.8382 192.953 51.8382 180.57C51.8382 172.218 53.8542 164.538 57.886 157.435C61.9179 150.427 67.3897 144.859 74.3015 140.827C81.2133 136.795 88.701 134.875 96.7647 134.875ZM97.1487 143.227C90.8129 143.227 84.6691 144.955 79.0053 148.219C73.2455 151.579 68.8297 155.995 65.5658 161.659C62.3979 167.322 60.7659 173.562 60.7659 180.57C60.7659 190.746 64.3178 199.481 71.4216 206.489C78.5253 213.593 87.1651 217.049 97.1487 217.049C103.868 217.049 110.012 215.513 115.772 212.249C121.436 208.985 125.948 204.569 129.116 198.905C132.284 193.241 133.915 187.002 133.915 180.09C133.915 173.274 132.284 167.034 129.116 161.563C125.948 155.995 121.436 151.579 115.58 148.219C109.82 144.955 103.676 143.227 97.1487 143.227ZM153.595 136.987H163.002L191.706 203.801L220.793 136.987H230.2L192.569 223.384H190.65L153.595 136.987ZM244.696 136.987H294.134V145.435H253.335V172.506H293.75V180.858H253.335V214.937H293.75V223.384H244.696V136.987ZM309.014 136.987H317.749V214.937H351.06V223.384H309.014V136.987Z" fill="white"/>
<path d="M338.485 136.987H348.372L370.643 173.082L392.627 136.987H402.418L375.059 182.01V223.384H366.324V182.01L338.485 136.987Z" fill="white"/>
<path d="M423.73 119.612C425.65 119.612 427.474 120.092 429.297 121.052C431.121 122.012 432.465 123.452 433.521 125.18C434.481 127.004 434.961 128.924 434.961 130.844C434.961 132.763 434.481 134.683 433.521 136.507C432.561 138.235 431.121 139.675 429.393 140.635C427.57 141.595 425.65 142.075 423.73 142.075C421.81 142.075 419.89 141.595 418.162 140.635C416.338 139.675 414.994 138.235 413.938 136.507C412.978 134.683 412.498 132.763 412.498 130.844C412.498 128.924 412.978 127.004 414.034 125.18C414.994 123.452 416.434 122.012 418.258 121.052C419.986 120.092 421.906 119.612 423.73 119.612ZM423.73 121.436C422.194 121.436 420.658 121.916 419.122 122.684C417.682 123.452 416.434 124.7 415.666 126.14C414.802 127.676 414.322 129.212 414.322 130.844C414.322 132.476 414.802 134.011 415.57 135.547C416.434 136.987 417.586 138.139 419.122 139.003C420.562 139.867 422.098 140.251 423.73 140.251C425.362 140.251 426.898 139.867 428.434 139.003C429.873 138.139 431.025 136.987 431.889 135.547C432.753 134.011 433.137 132.476 433.137 130.844C433.137 129.212 432.753 127.676 431.889 126.14C431.025 124.7 429.873 123.452 428.338 122.684C426.898 121.916 425.362 121.436 423.73 121.436ZM418.834 137.083V124.988H422.962C424.402 124.988 425.458 125.084 426.034 125.276C426.706 125.564 427.186 125.948 427.57 126.524C427.954 127.004 428.146 127.676 428.146 128.252C428.146 129.116 427.858 129.884 427.186 130.556C426.61 131.228 425.746 131.612 424.69 131.708C425.074 131.804 425.458 132.092 425.746 132.284C426.226 132.763 426.802 133.627 427.474 134.683L429.009 137.083H426.61L425.554 135.163C424.69 133.627 424.018 132.763 423.442 132.38C423.154 132.092 422.578 131.9 421.906 131.9H420.754V137.083H418.834ZM420.754 130.268H423.154C424.306 130.268 425.074 130.076 425.458 129.788C425.842 129.404 426.034 129.02 426.034 128.444C426.034 128.06 425.938 127.772 425.746 127.484C425.554 127.196 425.266 127.004 424.978 126.812C424.594 126.716 423.922 126.62 422.962 126.62H420.754V130.268Z" fill="white"/>
<path d="M200.633 13.1516C205.049 4.41585 209.465 0 218.201 0C227.896 0 235.672 7.87173 235.672 17.5674C235.672 35.0388 218.201 52.6062 200.633 70.0776C183.162 52.6062 165.594 35.0388 165.594 17.5674C165.594 7.87173 173.466 0 183.162 0C191.898 0 196.313 4.41585 200.633 13.1516Z" fill="white"/>
<path d="M143.995 71.2296C135.547 66.2377 131.516 61.5339 132.092 52.7982C132.764 43.1985 141.115 35.9028 150.811 36.5748C168.282 37.8227 184.506 56.4461 200.825 75.1654C182.106 91.3889 163.386 107.708 145.915 106.46C136.315 105.788 129.02 97.4367 129.692 87.741C130.268 79.0053 134.971 74.9735 143.995 71.2296Z" fill="white"/>
<path d="M257.655 71.2296C266.007 66.2377 270.135 61.5339 269.463 52.7982C268.791 43.1985 260.439 35.9028 250.84 36.5748C233.368 37.8227 217.049 56.4461 200.825 75.1654C219.545 91.3889 238.168 107.708 255.639 106.46C265.335 105.788 272.631 97.4367 271.959 87.741C271.287 79.0053 266.679 74.9735 257.655 71.2296Z" fill="white"/>
</svg>
