<?xml version="1.0" encoding="UTF-8"?>
<!DOCTYPE svg PUBLIC "-//W3C//DTD SVG 1.1//EN" "http://www.w3.org/Graphics/SVG/1.1/DTD/svg11.dtd">
<!-- Creator: CorelDRAW X8 -->
<svg xmlns="http://www.w3.org/2000/svg" xml:space="preserve" width="8.26772in" height="11.6929in" version="1.1" style="shape-rendering:geometricPrecision; text-rendering:geometricPrecision; image-rendering:optimizeQuality; fill-rule:evenodd; clip-rule:evenodd"
viewBox="0 0 8268 11693"
 xmlns:xlink="http://www.w3.org/1999/xlink">
 <defs>
  <style type="text/css">
   <![CDATA[
    .fil0 {fill:#967F5D;fill-rule:nonzero}
   ]]>
  </style>
 </defs>
 <g id="Layer_x0020_1">
  <metadata id="CorelCorpID_0Corel-Layer"/>
  <g id="_2661701113360">
   <path class="fil0" d="M3840 3391c68,-137 137,-206 274,-206 151,0 274,123 274,274 0,275 -274,549 -548,823 -275,-274 -549,-548 -549,-823 0,-151 123,-274 274,-274 138,0 206,69 275,206z"/>
   <path class="fil0" d="M2953 4299c-132,-78 -196,-151 -187,-288 11,-151 142,-265 293,-254 274,19 528,311 783,604 -293,255 -585,509 -859,490 -151,-10 -265,-141 -255,-292 10,-137 83,-201 225,-260z"/>
   <path class="fil0" d="M4731 4299c132,-78 196,-151 186,-288 -10,-151 -141,-265 -292,-254 -274,19 -529,311 -783,604 292,255 585,509 858,490 151,-10 266,-141 255,-292 -9,-137 -83,-201 -224,-260z"/>
  </g>
 </g>
</svg>
