<?xml version="1.0" encoding="UTF-8"?>
<!DOCTYPE svg PUBLIC "-//W3C//DTD SVG 1.1//EN" "http://www.w3.org/Graphics/SVG/1.1/DTD/svg11.dtd">
<!-- Creator: CorelDRAW X8 -->
<svg xmlns="http://www.w3.org/2000/svg" xml:space="preserve" width="8.26772in" height="11.6929in" version="1.1" style="shape-rendering:geometricPrecision; text-rendering:geometricPrecision; image-rendering:optimizeQuality; fill-rule:evenodd; clip-rule:evenodd"
viewBox="0 0 8268 11693"
 xmlns:xlink="http://www.w3.org/1999/xlink">
 <defs>
  <style type="text/css">
   <![CDATA[
    .fil0 {fill:#967F5D;fill-rule:nonzero}
   ]]>
  </style>
 </defs>
 <g id="Layer_x0020_1">
  <metadata id="CorelCorpID_0Corel-Layer"/>
  <path class="fil0" d="M704 7437l74 -532 11 0 216 437 216 -437 8 0 77 532 -52 0 -53 -381 -189 381 -14 0 -191 -384 -51 384 -52 0zm1262 -532l248 532 -57 0 -83 -175 -231 0 -83 175 -59 0 251 -532 14 0zm-7 112l-92 193 183 0 -91 -193zm676 -112l54 0 0 481 205 0 0 51 -259 0 0 -532zm682 532l0 -532 110 0c80,0 138,6 174,19 51,18 92,49 121,94 29,45 43,98 43,160 0,53 -11,100 -34,141 -23,40 -53,70 -90,90 -37,19 -89,28 -155,28l-169 0zm51 -50l61 0c74,0 124,-5 153,-14 40,-13 71,-36 94,-70 23,-34 34,-76 34,-124 0,-52 -12,-96 -37,-132 -24,-37 -59,-62 -103,-75 -34,-10 -88,-15 -165,-15l-37 0 0 430zm832 -482l53 0 0 532 -53 0 0 -532zm474 0l58 0 177 412 180 -412 58 0 -233 532 -12 0 -228 -532zm901 0l304 0 0 52 -251 0 0 167 249 0 0 52 -249 0 0 210 249 0 0 51 -302 0 0 -532zm680 433l46 -27c32,58 68,88 110,88 18,0 35,-4 51,-13 15,-8 27,-19 36,-33 8,-14 12,-29 12,-45 0,-17 -6,-35 -18,-52 -17,-24 -47,-52 -92,-86 -44,-33 -72,-57 -83,-72 -19,-25 -28,-53 -28,-82 0,-23 5,-44 17,-63 11,-19 26,-34 47,-45 20,-11 42,-17 66,-17 25,0 48,7 70,19 22,12 45,35 70,69l-44 33c-20,-27 -37,-45 -51,-53 -14,-8 -30,-13 -47,-13 -21,0 -39,7 -53,20 -13,13 -20,29 -20,48 0,12 2,23 7,34 5,11 14,22 27,35 7,7 30,25 69,53 46,34 78,65 95,91 17,27 26,54 26,80 0,39 -15,73 -44,101 -30,29 -65,43 -107,43 -33,0 -62,-9 -89,-26 -26,-17 -50,-47 -73,-87z"/>
  <path class="fil0" d="M699 5329l135 0 0 1220 522 0 0 132 -657 0 0 -1352zm1514 -34c205,0 376,69 514,205 137,137 206,305 206,504 0,198 -68,366 -206,504 -138,138 -305,207 -503,207 -200,0 -369,-69 -507,-206 -138,-137 -207,-303 -207,-498 0,-130 31,-250 94,-361 63,-111 149,-198 257,-261 108,-62 226,-94 352,-94zm6 132c-100,0 -195,26 -284,78 -90,52 -160,122 -210,210 -51,89 -76,187 -76,296 0,160 56,296 167,406 112,111 246,166 403,166 105,0 202,-25 291,-76 90,-51 159,-121 209,-209 50,-88 75,-186 75,-294 0,-107 -25,-204 -75,-291 -50,-86 -120,-156 -211,-208 -91,-52 -187,-78 -289,-78zm884 -98l147 0 449 1047 456 -1047 148 0 -590 1352 -30 0 -580 -1352zm1426 0l774 0 0 132 -639 0 0 423 633 0 0 132 -633 0 0 533 633 0 0 132 -768 0 0 -1352zm1007 0l136 0 0 1220 521 0 0 132 -657 0 0 -1352z"/>
  <polygon class="fil0" points="5997,5329 6151,5329 6501,5894 6845,5329 6998,5329 6569,6034 6569,6681 6434,6681 6434,6034 "/>
  <path class="fil0" d="M7332 5057c29,0 58,7 87,23 28,15 50,37 65,65 16,28 24,58 24,88 0,30 -8,60 -23,88 -16,28 -37,49 -65,65 -28,15 -58,23 -88,23 -31,0 -60,-8 -88,-23 -28,-16 -50,-37 -65,-65 -16,-28 -23,-58 -23,-88 0,-30 7,-60 23,-88 16,-28 38,-50 66,-65 28,-16 57,-23 87,-23zm0 29c-25,0 -49,6 -72,19 -24,13 -42,31 -55,55 -14,23 -20,48 -20,73 0,26 6,50 19,73 13,23 31,42 55,55 23,13 48,19 73,19 25,0 50,-6 73,-19 23,-13 41,-32 54,-55 13,-23 20,-47 20,-73 0,-25 -7,-50 -20,-73 -13,-24 -31,-42 -55,-55 -23,-13 -48,-19 -72,-19zm-77 244l0 -189 65 0c22,0 38,2 48,5 10,4 18,10 24,19 6,8 9,18 9,27 0,14 -5,26 -15,36 -10,11 -23,16 -40,18 7,3 13,6 17,10 7,7 17,20 28,37l23 37 -37 0 -17 -29c-14,-24 -24,-39 -32,-45 -6,-4 -14,-6 -25,-6l-18 0 0 80 -30 0zm30 -106l37 0c18,0 30,-3 37,-8 6,-5 9,-12 9,-21 0,-6 -1,-11 -4,-15 -3,-4 -8,-8 -13,-10 -6,-2 -16,-3 -31,-3l-35 0 0 57z"/>
 </g>
</svg>
