<?xml version="1.0" encoding="UTF-8"?>
<!DOCTYPE svg PUBLIC "-//W3C//DTD SVG 1.1//EN" "http://www.w3.org/Graphics/SVG/1.1/DTD/svg11.dtd">
<!-- Creator: CorelDRAW X8 -->
<svg xmlns="http://www.w3.org/2000/svg" xml:space="preserve"    version="1.1" style="shape-rendering:geometricPrecision; text-rendering:geometricPrecision; image-rendering:optimizeQuality; fill-rule:evenodd; clip-rule:evenodd"
viewBox="0 0 8268 11693"
 xmlns:xlink="http://www.w3.org/1999/xlink">
 <defs>
  <style type="text/css">
   <![CDATA[
    .fil0 {fill:white;fill-rule:nonzero;}
   ]]>
  </style>
 </defs>
 <g id="Layer_x0020_1">
  <metadata id="CorelCorpID_0Corel-Layer"/>
  <path class="fil0" d="M1659 4741l49 -354 7 0 145 290 143 -290 5 0 51 354 -34 0 -36 -254 -125 254 -9 0 -127 -256 -34 256 -35 0zm839 -354l166 354 -38 0 -56 -116 -153 0 -55 116 -40 0 168 -354 8 0zm-4 74l-61 129 122 0 -61 -129zm450 -74l35 0 0 319 137 0 0 35 -172 0 0 -354zm453 354l0 -354 74 0c53,0 91,4 115,12 35,12 62,33 81,63 19,30 29,65 29,106 0,36 -8,67 -23,94 -15,27 -35,47 -60,60 -24,13 -59,19 -103,19l-113 0zm34 -34l41 0c49,0 83,-3 102,-9 26,-8 47,-24 63,-46 15,-23 22,-51 22,-83 0,-34 -8,-64 -24,-88 -17,-24 -40,-41 -69,-50 -22,-6 -59,-10 -110,-10l-25 0 0 286zm554 -320l36 0 0 354 -36 0 0 -354zm316 0l38 0 118 274 119 -274 39 0 -154 354 -8 0 -152 -354zm599 0l203 0 0 34 -168 0 0 111 166 0 0 35 -166 0 0 139 166 0 0 35 -201 0 0 -354zm453 288l30 -18c21,39 46,58 74,58 12,0 23,-2 33,-8 11,-5 19,-13 24,-22 6,-10 8,-19 8,-30 0,-12 -4,-23 -12,-35 -11,-15 -31,-34 -61,-57 -29,-22 -48,-38 -55,-48 -13,-17 -19,-35 -19,-54 0,-16 4,-30 11,-42 8,-13 18,-23 32,-30 13,-8 28,-11 43,-11 17,0 33,4 48,12 14,8 30,24 46,46l-29 22c-14,-18 -25,-30 -34,-35 -10,-6 -20,-9 -31,-9 -15,0 -26,5 -36,13 -9,9 -13,20 -13,32 0,8 1,15 5,23 3,7 9,15 17,23 5,5 20,17 46,36 31,22 52,43 64,60 11,18 17,36 17,53 0,26 -10,49 -30,67 -19,19 -43,29 -71,29 -21,0 -41,-6 -59,-17 -17,-12 -33,-31 -48,-58z"/>
  <path class="fil0" d="M1655 3338l91 0 0 812 347 0 0 88 -438 0 0 -900zm1008 -22c136,0 250,45 342,136 91,91 137,203 137,335 0,132 -45,244 -137,336 -91,91 -203,137 -335,137 -133,0 -245,-46 -337,-137 -92,-91 -138,-202 -138,-331 0,-87 21,-167 63,-241 42,-73 99,-131 171,-173 72,-42 150,-62 234,-62zm4 87c-66,0 -130,18 -189,52 -60,35 -106,81 -140,140 -33,59 -50,124 -50,197 0,106 37,197 111,270 74,74 164,110 268,110 70,0 134,-16 194,-50 59,-34 106,-80 139,-139 33,-59 50,-124 50,-196 0,-71 -17,-136 -50,-193 -33,-58 -80,-104 -141,-139 -60,-34 -124,-52 -192,-52zm588 -65l98 0 299 696 303 -696 98 0 -392 900 -20 0 -386 -900zm949 0l515 0 0 88 -425 0 0 282 421 0 0 87 -421 0 0 355 421 0 0 88 -511 0 0 -900zm670 0l91 0 0 812 347 0 0 88 -438 0 0 -900z"/>
  <polygon class="fil0" points="5181,3338 5284,3338 5516,3714 5745,3338 5847,3338 5562,3807 5562,4238 5471,4238 5471,3807 "/>
  <path class="fil0" d="M6069 3157c20,0 39,5 58,15 19,10 33,25 44,43 10,19 15,39 15,59 0,20 -5,40 -15,59 -10,18 -25,33 -43,43 -19,10 -39,15 -59,15 -20,0 -40,-5 -58,-15 -19,-10 -33,-25 -44,-43 -10,-19 -15,-39 -15,-59 0,-20 5,-40 16,-59 10,-18 25,-33 44,-43 18,-10 38,-15 57,-15zm0 19c-16,0 -32,5 -48,13 -15,8 -28,21 -36,36 -9,16 -14,32 -14,49 0,17 5,33 13,49 9,15 21,27 37,36 15,9 31,13 48,13 17,0 33,-4 49,-13 15,-9 27,-21 36,-36 9,-16 13,-32 13,-49 0,-17 -4,-33 -13,-49 -9,-15 -21,-28 -37,-36 -15,-8 -31,-13 -48,-13zm-51 163l0 -126 43 0c15,0 26,1 32,3 7,3 12,7 16,13 4,5 6,12 6,18 0,9 -3,17 -10,24 -6,7 -15,11 -26,12 4,1 8,4 11,6 5,5 11,14 18,25l16 25 -25 0 -11 -20c-9,-16 -16,-25 -22,-29 -3,-3 -9,-5 -16,-5l-12 0 0 54 -20 0zm20 -71l25 0c12,0 20,-2 24,-5 4,-4 6,-8 6,-14 0,-4 -1,-7 -3,-10 -2,-3 -5,-5 -8,-7 -4,-1 -11,-2 -21,-2l-23 0 0 38z"/>
  <path class="fil0" d="M3745 2048c46,-91 92,-137 183,-137 101,0 182,82 182,183 0,182 -182,365 -365,547 -182,-182 -365,-365 -365,-547 0,-101 82,-183 183,-183 91,0 137,46 182,137z"/>
  <path class="fil0" d="M3155 2653c-88,-52 -130,-101 -124,-192 7,-100 94,-176 195,-169 182,13 351,207 521,402 -195,169 -390,339 -572,326 -100,-7 -176,-94 -169,-195 6,-91 55,-133 149,-172z"/>
  <path class="fil0" d="M4339 2653c87,-52 130,-101 123,-192 -7,-100 -94,-176 -194,-169 -182,13 -352,207 -521,402 195,169 389,339 571,326 101,-7 177,-94 170,-195 -7,-91 -55,-133 -149,-172z"/>
 </g>
</svg>
